<svg width="407" height="78" viewBox="0 0 407 78" fill="none" xmlns="http://www.w3.org/2000/svg">
<path d="M135.998 27.5979C135.613 26.3514 135.083 25.2358 134.405 24.2509C133.744 23.2507 132.944 22.3966 132.005 21.6888C131.082 20.9809 130.02 20.45 128.82 20.0961C127.619 19.7268 126.311 19.5421 124.896 19.5421C122.356 19.5421 120.094 20.1807 118.109 21.458C116.124 22.7352 114.562 24.6126 113.424 27.0901C112.3 29.5522 111.739 32.5529 111.739 36.0922C111.739 39.6622 112.3 42.686 113.424 45.1635C114.547 47.641 116.109 49.5261 118.109 50.8187C120.11 52.0959 122.433 52.7345 125.08 52.7345C127.481 52.7345 129.558 52.2729 131.312 51.3496C133.082 50.4263 134.444 49.1183 135.398 47.4256C136.352 45.7175 136.829 43.717 136.829 41.4242L138.768 41.7243H125.934V35.0304H145.116V40.7086C145.116 44.7557 144.254 48.2566 142.53 51.2111C140.807 54.1656 138.437 56.4431 135.421 58.0435C132.405 59.6285 128.943 60.421 125.034 60.421C120.679 60.421 116.855 59.4438 113.562 57.4895C110.284 55.5198 107.722 52.7268 105.876 49.1106C104.045 45.479 103.129 41.1703 103.129 36.1845C103.129 32.3682 103.667 28.9597 104.745 25.959C105.837 22.9583 107.361 20.4116 109.315 18.3188C111.269 16.2106 113.562 14.6102 116.194 13.5176C118.825 12.4097 121.687 11.8557 124.78 11.8557C127.396 11.8557 129.835 12.2404 132.097 13.0098C134.359 13.7639 136.367 14.841 138.122 16.2414C139.891 17.6417 141.346 19.3036 142.484 21.2271C143.623 23.1507 144.369 25.2742 144.723 27.5979H135.998Z" fill="#3D3D41"/>
<path d="M149.777 59.7746V24.3202H157.879V30.2293H158.248C158.895 28.1826 160.003 26.6053 161.572 25.4974C163.157 24.374 164.965 23.8124 166.997 23.8124C167.458 23.8124 167.974 23.8354 168.543 23.8816C169.128 23.9124 169.613 23.9662 169.997 24.0432V31.7296C169.643 31.6065 169.082 31.4988 168.312 31.4065C167.558 31.2987 166.827 31.2449 166.119 31.2449C164.596 31.2449 163.226 31.5757 162.011 32.2374C160.811 32.8837 159.864 33.7839 159.172 34.9381C158.479 36.0922 158.133 37.4232 158.133 38.9313V59.7746H149.777Z" fill="#3D3D41"/>
<path d="M181.866 60.4902C179.62 60.4902 177.596 60.0901 175.796 59.2899C174.011 58.4743 172.595 57.2741 171.548 55.6891C170.517 54.1041 170.002 52.1498 170.002 49.8262C170.002 47.8257 170.371 46.1715 171.11 44.8635C171.848 43.5555 172.856 42.5091 174.134 41.7243C175.411 40.9395 176.85 40.347 178.45 39.9469C180.066 39.5314 181.735 39.2314 183.459 39.0467C185.536 38.8313 187.221 38.6389 188.514 38.4696C189.807 38.285 190.745 38.008 191.33 37.6387C191.93 37.254 192.23 36.6615 192.23 35.8613V35.7228C192.23 33.984 191.715 32.6375 190.684 31.6834C189.653 30.7294 188.168 30.2523 186.229 30.2523C184.182 30.2523 182.559 30.6986 181.358 31.5911C180.174 32.4836 179.373 33.5377 178.958 34.7534L171.156 33.6454C171.772 31.4911 172.787 29.6907 174.203 28.2442C175.619 26.7823 177.35 25.6897 179.396 24.9665C181.443 24.2278 183.705 23.8585 186.183 23.8585C187.891 23.8585 189.591 24.0586 191.284 24.4587C192.977 24.8588 194.523 25.5205 195.923 26.4437C197.324 27.3517 198.447 28.5904 199.293 30.16C200.155 31.7296 200.586 33.6916 200.586 36.046V59.7746H192.553V54.9043H192.276C191.769 55.8891 191.053 56.8124 190.13 57.6742C189.222 58.5205 188.075 59.2053 186.69 59.7285C185.321 60.2363 183.713 60.4902 181.866 60.4902ZM184.036 54.3503C185.713 54.3503 187.167 54.0195 188.399 53.3578C189.63 52.6807 190.576 51.7882 191.238 50.6802C191.915 49.5723 192.253 48.3643 192.253 47.0563V42.8784C191.992 43.0938 191.545 43.2939 190.915 43.4785C190.299 43.6632 189.607 43.8248 188.837 43.9632C188.068 44.1017 187.306 44.2248 186.552 44.3326C185.798 44.4403 185.144 44.5326 184.59 44.6095C183.344 44.7788 182.228 45.0558 181.243 45.4405C180.258 45.8252 179.481 46.3638 178.912 47.0563C178.342 47.7334 178.058 48.6105 178.058 49.6877C178.058 51.2265 178.619 52.3883 179.743 53.1731C180.866 53.9579 182.297 54.3503 184.036 54.3503Z" fill="#3D3D41"/>
<path d="M205.738 73.0701V24.3202H213.955V30.1831H214.44C214.871 29.3213 215.479 28.4057 216.264 27.4363C217.048 26.4514 218.11 25.6128 219.449 24.9203C220.788 24.2125 222.496 23.8585 224.573 23.8585C227.312 23.8585 229.782 24.5587 231.983 25.959C234.199 27.344 235.953 29.3983 237.245 32.122C238.553 34.8303 239.207 38.1542 239.207 42.0936C239.207 45.9868 238.569 49.2953 237.292 52.019C236.014 54.7427 234.275 56.8201 232.075 58.2512C229.874 59.6823 227.382 60.3979 224.596 60.3979C222.565 60.3979 220.88 60.0593 219.541 59.3822C218.202 58.7052 217.125 57.8896 216.31 56.9355C215.51 55.9661 214.886 55.0505 214.44 54.1887H214.094V73.0701H205.738ZM213.932 42.0474C213.932 44.3403 214.255 46.3484 214.902 48.0719C215.563 49.7954 216.51 51.1419 217.741 52.1113C218.987 53.0654 220.495 53.5424 222.265 53.5424C224.112 53.5424 225.658 53.05 226.904 52.0651C228.151 51.0649 229.09 49.7031 229.721 47.9796C230.367 46.2407 230.69 44.2633 230.69 42.0474C230.69 39.8469 230.375 37.8926 229.744 36.1845C229.113 34.4764 228.174 33.1376 226.928 32.1682C225.681 31.1987 224.127 30.714 222.265 30.714C220.48 30.714 218.964 31.1833 217.718 32.122C216.471 33.0607 215.525 34.3764 214.879 36.0691C214.248 37.7618 213.932 39.7546 213.932 42.0474Z" fill="#3D3D41"/>
<path d="M251.469 39.0005V59.7746H243.113V12.502H251.284V30.3447H251.7C252.53 28.3442 253.815 26.7669 255.554 25.6128C257.309 24.4433 259.54 23.8585 262.248 23.8585C264.71 23.8585 266.857 24.374 268.688 25.405C270.519 26.4361 271.935 27.9441 272.935 29.9292C273.951 31.9143 274.459 34.3379 274.459 37.2001V59.7746H266.103V38.4927C266.103 36.1076 265.487 34.2533 264.256 32.9299C263.041 31.5911 261.333 30.9217 259.132 30.9217C257.655 30.9217 256.331 31.2449 255.162 31.8912C254.008 32.5221 253.1 33.4377 252.438 34.638C251.792 35.8383 251.469 37.2924 251.469 39.0005Z" fill="#3D3D41"/>
<path d="M295.422 60.4671C291.867 60.4671 288.797 59.7285 286.212 58.2512C283.642 56.7586 281.665 54.6504 280.28 51.9266C278.895 49.1875 278.203 45.9637 278.203 42.2552C278.203 38.6081 278.895 35.4074 280.28 32.6529C281.68 29.883 283.635 27.7287 286.143 26.1898C288.651 24.6356 291.598 23.8585 294.984 23.8585C297.169 23.8585 299.231 24.2125 301.17 24.9203C303.124 25.6128 304.847 26.69 306.34 28.1518C307.848 29.6137 309.033 31.4757 309.895 33.7378C310.756 35.9844 311.187 38.662 311.187 41.7704V44.3326H282.127V38.7005H303.178C303.162 37.1001 302.816 35.6767 302.139 34.4302C301.462 33.1684 300.516 32.1759 299.3 31.4526C298.1 30.7294 296.699 30.3677 295.099 30.3677C293.391 30.3677 291.89 30.7832 290.598 31.6142C289.305 32.4298 288.297 33.5069 287.574 34.8457C286.866 36.1691 286.505 37.6233 286.489 39.2083V44.1248C286.489 46.1868 286.866 47.9565 287.62 49.4338C288.374 50.8956 289.428 52.019 290.783 52.8038C292.137 53.5732 293.722 53.9579 295.538 53.9579C296.753 53.9579 297.853 53.7886 298.838 53.4501C299.823 53.0962 300.677 52.5806 301.4 51.9036C302.124 51.2265 302.67 50.3878 303.039 49.3876L310.841 50.2647C310.349 52.3267 309.41 54.1272 308.025 55.666C306.656 57.1894 304.901 58.3743 302.762 59.2207C300.623 60.0516 298.177 60.4671 295.422 60.4671Z" fill="#3D3D41"/>
<path d="M323.362 39.0005V59.7746H315.006V24.3202H322.993V30.3447H323.408C324.224 28.3596 325.524 26.7823 327.309 25.6128C329.11 24.4433 331.333 23.8585 333.98 23.8585C336.427 23.8585 338.558 24.3817 340.374 25.4281C342.205 26.4745 343.621 27.9903 344.621 29.9753C345.637 31.9604 346.137 34.3687 346.121 37.2001V59.7746H337.765V38.4927C337.765 36.1229 337.15 34.2687 335.919 32.9299C334.703 31.5911 333.018 30.9217 330.864 30.9217C329.402 30.9217 328.102 31.2449 326.963 31.8912C325.84 32.5221 324.955 33.4377 324.308 34.638C323.678 35.8383 323.362 37.2924 323.362 39.0005Z" fill="#3D3D41"/>
<path d="M377.564 59.7746V66.4454H347.026V59.7746H377.564Z" fill="#3D3D41"/>
<path d="M397.541 12.502H406.035V45.7406C406.02 48.7875 405.373 51.4111 404.096 53.6117C402.819 55.7968 401.034 57.4818 398.741 58.6667C396.464 59.8362 393.809 60.421 390.778 60.421C388.008 60.421 385.515 59.9285 383.299 58.9437C381.098 57.9434 379.352 56.4662 378.059 54.5119C376.767 52.5576 376.12 50.1262 376.12 47.2179H384.638C384.653 48.4951 384.93 49.5953 385.469 50.5186C386.023 51.4419 386.784 52.1498 387.754 52.6422C388.723 53.1346 389.839 53.3808 391.101 53.3808C392.47 53.3808 393.632 53.0962 394.586 52.5268C395.54 51.942 396.263 51.0803 396.756 49.9416C397.264 48.8028 397.525 47.4025 397.541 45.7406V12.502Z" fill="#3D3D41"/>
<path fill-rule="evenodd" clip-rule="evenodd" d="M21.667 39C21.667 36.6067 23.6071 34.6666 26.0003 34.6666L73.6669 34.6666C76.0601 34.6666 78.0002 36.6067 78.0002 39C78.0002 41.3932 76.0601 43.3333 73.6669 43.3333L26.0003 43.3333C23.6071 43.3333 21.667 41.3932 21.667 39Z" fill="#3D3D41"/>
<path fill-rule="evenodd" clip-rule="evenodd" d="M34.666 56.3333C34.666 53.9401 36.6061 52 38.9993 52L73.6659 52C76.0592 52 77.9993 53.9401 77.9993 56.3333C77.9993 58.7266 76.0592 60.6666 73.6659 60.6666L38.9993 60.6666C36.6061 60.6666 34.666 58.7266 34.666 56.3333Z" fill="#3D3D41"/>
<path fill-rule="evenodd" clip-rule="evenodd" d="M30.332 73.6667C30.332 71.2735 32.2721 69.3334 34.6654 69.3334H43.332C45.7252 69.3334 47.6653 71.2735 47.6653 73.6667C47.6653 76.0599 45.7252 78 43.332 78H34.6654C32.2721 78 30.332 76.0599 30.332 73.6667Z" fill="#3D3D41"/>
<path fill-rule="evenodd" clip-rule="evenodd" d="M0 39C0 36.6067 1.9401 34.6666 4.33332 34.6666H13C15.3932 34.6666 17.3333 36.6067 17.3333 39C17.3333 41.3932 15.3932 43.3333 13 43.3333H4.33332C1.9401 43.3333 0 41.3932 0 39Z" fill="#3D3D41"/>
<path fill-rule="evenodd" clip-rule="evenodd" d="M0 56.3333C0 53.9401 1.9401 52 4.33332 52H25.9999C28.3932 52 30.3333 53.9401 30.3333 56.3333C30.3333 58.7266 28.3932 60.6666 25.9999 60.6666H4.33332C1.9401 60.6666 0 58.7266 0 56.3333Z" fill="#3D3D41"/>
<path fill-rule="evenodd" clip-rule="evenodd" d="M0 21.6667C0 19.2735 1.9401 17.3334 4.33332 17.3334H43.3332C45.7265 17.3334 47.6666 19.2735 47.6666 21.6667C47.6666 24.0599 45.7265 26 43.3332 26H4.33332C1.9401 26 0 24.0599 0 21.6667Z" fill="#3D3D41"/>
<path fill-rule="evenodd" clip-rule="evenodd" d="M51.999 21.6667C51.999 19.2735 53.9391 17.3334 56.3323 17.3334H73.6656C76.0589 17.3334 77.999 19.2735 77.999 21.6667C77.999 24.0599 76.0589 26 73.6656 26H56.3323C53.9391 26 51.999 24.0599 51.999 21.6667Z" fill="#3D3D41"/>
<path fill-rule="evenodd" clip-rule="evenodd" d="M26.001 4.33332C26.001 1.9401 27.9411 0 30.3343 0H47.6676C50.0608 0 52.0009 1.9401 52.0009 4.33332C52.0009 6.72655 50.0608 8.66665 47.6676 8.66665H30.3343C27.9411 8.66665 26.001 6.72655 26.001 4.33332Z" fill="#3D3D41"/>
</svg>
